<svg xmlns:dc="http://purl.org/dc/elements/1.1/" xmlns:cc="http://creativecommons.org/ns#" xmlns:rdf="http://www.w3.org/1999/02/22-rdf-syntax-ns#" xmlns:svg="http://www.w3.org/2000/svg" xmlns="http://www.w3.org/2000/svg" xmlns:sodipodi="http://sodipodi.sourceforge.net/DTD/sodipodi-0.dtd" xmlns:inkscape="http://www.inkscape.org/namespaces/inkscape" version="1.1" x="0px" y="0px" viewBox="0 0 100 125"><g transform="translate(0,-952.36218)"><path style="text-indent:0;text-transform:none;direction:ltr;block-progression:tb;baseline-shift:baseline;color:#000000;enable-background:accumulate;" d="m 50.047375,981.3622 c -14.5856,-0.01 -29.1017,6.73625 -43.4999999,20.0312 -0.7412,0.719 -0.7086,1.2714 0,1.9687 14.3982999,13.2943 28.9150999,20.0151 43.4999999,20 14.5719,-0.015 29.0697,-6.756 43.374998,-19.9687 0.8168,-0.8543 0.6922,-1.3237 0.063,-1.9375 C 79.155475,988.17852 64.645175,981.37225 50.047775,981.3622 z m -0.031,7.15625 c 7.7843,0 14.125,6.20531 14.125,13.84365 0,7.6385 -6.3407,13.875 -14.125,13.875 -7.7846,0 -14.125,-6.2365 -14.125,-13.875 0,-7.63834 6.3404,-13.84365 14.125,-13.84365 z" fill="#000000" fill-opacity="1" fill-rule="evenodd" stroke="none" marker="none" visibility="visible" display="inline" overflow="visible"/><path style="text-indent:0;text-transform:none;direction:ltr;block-progression:tb;baseline-shift:baseline;color:#000000;enable-background:accumulate;" d="m 49.841101,994.15104 c -0.387992,-0.006 -0.77563,0.024 -1.159724,0.0946 a 1.1314047,1.1101807 0 1 0 0.415984,2.18252 c 1.15689,-0.21292 2.814094,0.2765 4.135394,1.26575 1.320944,0.98925 2.24185,2.40119 2.301732,3.70999 a 1.1311559,1.1099365 0 1 0 2.259212,-0.1008 c -0.100275,-2.19101 -1.46374,-4.0823 -3.188622,-5.37387 -1.401023,-1.0494 -3.083031,-1.75323 -4.763976,-1.77821 z" fill="#000000" fill-opacity="1" fill-rule="evenodd" stroke="none" marker="none" visibility="visible" display="inline" overflow="visible"/></g></svg>