<svg xmlns:dc="http://purl.org/dc/elements/1.1/" xmlns:cc="http://creativecommons.org/ns#" xmlns:rdf="http://www.w3.org/1999/02/22-rdf-syntax-ns#" xmlns:svg="http://www.w3.org/2000/svg" xmlns="http://www.w3.org/2000/svg" xmlns:sodipodi="http://sodipodi.sourceforge.net/DTD/sodipodi-0.dtd" xmlns:inkscape="http://www.inkscape.org/namespaces/inkscape" version="1.1" x="0px" y="0px" viewBox="0 0 100 125"><g transform="translate(0,-952.36218)"><path style="text-indent:0;text-transform:none;direction:ltr;block-progression:tb;baseline-shift:baseline;color:#000000;enable-background:accumulate;" d="m 49.999997,984.36219 c -17.14138,0 -32.21723,6.85929 -40.7812495,17.34381 a 1.0001,1.0001 0 0 0 0,1.2812 c 8.5640195,10.4845 23.6398695,17.375 40.7812495,17.375 17.141381,0 32.217221,-6.8905 40.781256,-17.375 a 1.0001,1.0001 0 0 0 0,-1.2812 C 82.217218,991.22148 67.141378,984.36219 49.999997,984.36219 z m -6.75,2.40625 c -6.0307,2.61398 -10.25,8.61113 -10.25,15.59376 0,6.9726 4.20194,13.0051 10.21875,15.625 -13.349919,-1.5168 -24.80818,-7.4325 -31.843749,-15.625 7.044249,-8.21313 18.49442,-14.08978 31.874999,-15.59376 z m 13.5,0 c 13.380571,1.50398 24.830741,7.38063 31.875006,15.59376 -7.035585,8.1925 -18.493835,14.1082 -31.843756,15.625 6.016811,-2.6199 10.218751,-8.6524 10.218751,-15.625 0,-6.98263 -4.219301,-12.97978 -10.250001,-15.59376 z m -6.75,0.59375 c 8.296091,0 15.000001,6.70398 15.000001,15.00001 0,8.2961 -6.703901,15 -15.000001,15 -8.29613,0 -15,-6.7039 -15,-15 0,-8.29603 6.70387,-15.00001 15,-15.00001 z m 0,6.99998 c -4.40644,0 -8,3.5936 -8,8.00003 0,4.4064 3.59356,8 8,8 4.40643,0 8,-3.5936 8,-8 0,-4.40643 -3.593559,-8.00003 -8,-8.00003 z m 0,2 c 3.325541,0 6,2.6745 6,6.00003 0,3.3256 -2.674449,6 -6,6 -3.32556,0 -6,-2.6744 -6,-6 0,-3.32553 2.67444,-6.00003 6,-6.00003 z" fill="#000000" fill-opacity="1" stroke="none" marker="none" visibility="visible" display="inline" overflow="visible"/></g></svg>